<?xml version="1.0" encoding="UTF-8"?>
<svg id="Layer_1" data-name="Layer 1" xmlns="http://www.w3.org/2000/svg" viewBox="0 0 807.44 478.8">
  <defs>
    <style>
      .cls-1 {
        fill: #016eaf;
      }

      .cls-1, .cls-2 {
        stroke-width: 0px;
      }

      .cls-2 {
        fill: #e54360;
      }
    </style>
  </defs>
  <path class="cls-1" d="M421.28,424.11c-.06-1.98-.37-3.91-.99-5.68-.62-1.77-1.52-3.29-2.66-4.59-1.15-1.3-2.67-2.29-4.44-3.07-1.77-.78-3.81-1.15-6.2-1.15-2.14,0-4.22.37-6.05,1.15-1.93.78-3.5,1.77-4.96,3.07-1.36,1.3-2.51,2.82-3.44,4.59-.93,1.77-1.46,3.66-1.52,5.68h30.26ZM431.57,428.17v1.67c0,.62,0,1.15-.06,1.67h-40.49c.06,2.14.52,4.12,1.46,6.05.93,1.93,2.08,3.5,3.6,4.9,1.52,1.36,3.23,2.45,5.21,3.29,1.98.78,4.07,1.15,6.26,1.15,3.44,0,6.42-.78,8.97-2.24,2.51-1.52,4.43-3.38,5.89-5.52l7.1,5.68c-2.76,3.6-5.89,6.26-9.65,7.99-3.66,1.67-7.84,2.51-12.31,2.51-3.91,0-7.41-.62-10.7-1.93-3.29-1.3-6.11-3.07-8.5-5.43-2.35-2.3-4.22-5.12-5.58-8.4-1.36-3.29-2.08-6.94-2.08-10.95s.68-7.57,1.98-10.97c1.3-3.38,3.23-6.21,5.52-8.56,2.35-2.35,5.21-4.22,8.4-5.54,3.23-1.3,6.73-1.98,10.39-1.98s7.1.62,10.17,1.83c3.07,1.21,5.68,2.97,7.72,5.27,2.14,2.29,3.75,5.06,4.9,8.34,1.24,3.44,1.77,7.1,1.77,11.16h.02Z"/>
  <path class="cls-1" d="M533.58,403.12l-11.53,39.31-12.47-39.31h-10.66l-12.25,39.31-11.65-39.31h-10.95l17.02,50.99h10.48l12.47-38.25h.21l12.58,38.25h10.54l16.84-50.99h-10.64Z"/>
  <path class="cls-1" d="M587.65,428.54c0-2.45-.37-4.75-1.15-6.94-.78-2.24-1.83-4.12-3.29-5.8-1.46-1.67-3.23-2.98-5.37-4.06-2.14-.99-4.53-1.52-7.25-1.52s-5.11.53-7.26,1.52c-2.14.99-3.91,2.35-5.37,4.06-1.46,1.73-2.51,3.6-3.29,5.8-.78,2.24-1.15,4.55-1.15,6.94s.37,4.75,1.15,6.94c.78,2.2,1.83,4.22,3.29,5.89,1.46,1.67,3.23,3.07,5.37,4.07,2.14.99,4.53,1.52,7.26,1.52s5.11-.53,7.25-1.52c2.14-.99,3.91-2.35,5.37-4.07,1.46-1.67,2.51-3.66,3.29-5.89.84-2.2,1.15-4.49,1.15-6.94ZM598.19,428.48c0,3.97-.68,7.57-2.08,10.85-1.36,3.29-3.38,6.11-5.79,8.56-2.45,2.35-5.37,4.28-8.71,5.58-3.38,1.3-6.94,1.98-10.85,1.98s-7.51-.68-10.85-1.98c-3.38-1.3-6.26-3.23-8.71-5.58-2.45-2.35-4.38-5.27-5.74-8.56-1.36-3.29-2.08-6.88-2.08-10.85s.68-7.57,2.08-10.79c1.36-3.29,3.29-6.05,5.74-8.4,2.45-2.35,5.37-4.22,8.71-5.52,3.38-1.3,6.94-1.98,10.85-1.98s7.51.68,10.85,1.98c3.38,1.3,6.26,3.13,8.71,5.52,2.45,2.39,4.43,5.21,5.79,8.4,1.4,3.29,2.08,6.88,2.08,10.79Z"/>
  <path class="cls-1" d="M647.2,387.37h-10.13v66.75h10.13v-66.75Z"/>
  <path class="cls-1" d="M460.04,410.84v-7.72h-12.74v-15.75h-10.02v51.66c0,5.27,1.3,9.24,3.81,11.94,2.51,2.67,6.21,3.97,11.01,3.97,1.62,0,3.07-.16,4.59-.37,1.21-.21,2.29-.47,3.29-.84v-8.34c-.78.31-1.61.53-2.51.78-1.09.21-2.08.31-2.98.31-2.51,0-4.38-.68-5.52-1.98-1.15-1.3-1.67-3.5-1.67-6.57v-27.03l12.74-.06v.02Z"/>
  <path class="cls-1" d="M628.51,401.76c-3.44,0-6.51.93-9.24,2.76-2.76,1.83-5.21,4.22-6.57,7.25v-8.65h-9.55v50.97h10.11v-26.76c0-2.14.31-4.22.84-6.2.53-1.98,1.46-3.66,2.61-5.21,1.15-1.52,2.66-2.66,4.43-3.6,1.77-.93,3.91-1.36,6.36-1.36,1.61,0,3.13.15,4.59.53v-9.39c-1.05-.25-2.2-.31-3.6-.31l.02-.02Z"/>
  <path class="cls-1" d="M374.22,414.4c-.78-2.51-1.93-4.65-3.5-6.57-1.62-1.83-3.5-3.38-5.89-4.43-2.35-1.09-5.21-1.67-8.5-1.67-1.83,0-3.66.21-5.37.78-1.67.53-3.29,1.21-4.75,2.08-1.46.93-2.66,1.93-3.81,3.13-1.15,1.15-2.29,2.45-2.97,3.81v-8.34h-9.49v50.98h10.11v-27.09c0-5.06,1.3-9.18,3.81-12.16,2.51-3.07,5.8-4.59,9.8-4.59,2.35,0,4.28.47,5.8,1.3,1.52.84,2.66,1.98,3.5,3.44.84,1.46,1.46,3.07,1.77,4.96.31,1.83.47,3.81.47,5.89v28.24h10.17v-31.62c0-2.92-.37-5.64-1.15-8.15v.02Z"/>
  <path class="cls-1" d="M668.69,403.12h12.47l-21.49,25.67,21.18,25.32h-12.47l-21.2-25.32,21.51-25.67Z"/>
  <path class="cls-1" d="M227.03,446.16c2.51,0,4.76-.41,6.79-1.25,2.02-.91,3.73-2.1,5.12-3.56,1.4-1.54,2.47-3.35,3.25-5.45.78-2.16,1.15-4.49,1.15-7s-.39-4.8-1.15-6.9c-.76-2.16-1.85-3.97-3.25-5.45-1.4-1.54-3.09-2.72-5.12-3.56-2.02-.92-4.28-1.36-6.79-1.36s-4.76.45-6.79,1.36c-2.02.84-3.74,2.02-5.11,3.56-1.4,1.46-2.47,3.27-3.25,5.45-.78,2.08-1.15,4.4-1.15,6.9s.39,4.84,1.15,7c.76,2.1,1.85,3.91,3.25,5.45,1.4,1.46,3.09,2.64,5.11,3.56,2.02.84,4.28,1.25,6.79,1.25ZM201.32,374.67h9.41v36.58h.21c1.67-2.59,4.08-4.59,7.22-6.07,3.13-1.54,6.48-2.29,10.04-2.29,3.83,0,7.27.66,10.35,1.98,3.13,1.32,5.78,3.17,7.95,5.54,2.24,2.29,3.93,5.06,5.12,8.27,1.19,3.13,1.77,6.55,1.77,10.25s-.6,7.1-1.77,10.25c-1.19,3.13-2.9,5.89-5.12,8.26-2.16,2.37-4.8,4.22-7.95,5.54-3.07,1.32-6.51,1.98-10.35,1.98-3.35,0-6.61-.74-9.82-2.2-3.13-1.46-5.62-3.52-7.43-6.16h-.21v7.1h-9.41v-79.04Z"/>
  <path class="cls-1" d="M254.04,404.15h10.87l14.74,38.68h.21l14-38.68h10.13l-23.51,60.21c-.84,2.16-1.71,4.1-2.61,5.85-.92,1.81-1.98,3.35-3.25,4.59-1.24,1.24-2.78,2.24-4.59,2.94-1.75.7-3.91,1.05-6.48,1.05-1.4,0-2.82-.1-4.28-.31-1.4-.14-2.74-.49-4.08-1.05l1.15-8.58c1.89.76,3.77,1.15,5.64,1.15,1.46,0,2.68-.21,3.66-.62,1.05-.35,1.91-.91,2.61-1.67.76-.7,1.4-1.54,1.89-2.51.49-.97.97-2.08,1.46-3.35l3.03-7.84-20.6-49.87h0Z"/>
  <path class="cls-1" d="M0,333.79v-139.09h80.51c9.82,0,18.87,1.66,27.17,4.97,8.27,3.31,15.43,7.98,21.43,13.98,6,6,10.68,13.18,14.06,21.52,3.38,8.36,5.07,17.57,5.07,27.65s-1.7,19.46-5.07,28.12c-3.37,8.67-8.06,16.17-14.06,22.49-6,6.32-13.13,11.29-21.43,14.92-8.3,3.63-17.34,5.46-27.17,5.46H0v-.02ZM80.51,309.47c6.25,0,12.01-1.14,17.3-3.44,5.29-2.3,9.89-5.46,13.78-9.48,3.89-4.02,6.92-8.84,9.09-14.45,2.17-5.61,3.25-11.67,3.25-18.17s-1.07-12.53-3.25-18.08c-2.17-5.55-5.2-10.3-9.09-14.26-3.89-3.96-8.49-7.05-13.78-9.29-5.29-2.24-11.07-3.35-17.3-3.35H24.09v90.52h56.42Z"/>
  <path class="cls-1" d="M207.99,295.13v-23.54h55.84c8.53,0,15.2-2.43,19.99-7.27,4.77-4.84,7.18-11.22,7.18-19.14s-2.39-14.41-7.18-19.14c-4.79-4.71-11.46-7.07-19.99-7.07h-73.63v114.79h-24.09v-139.09h97.73c8.04,0,15.2,1.18,21.51,3.53,6.32,2.37,11.63,5.68,15.97,9.95,4.34,4.28,7.65,9.48,9.95,15.59,2.3,6.13,3.44,13.01,3.44,20.66s-1.14,14.38-3.44,20.58c-2.3,6.19-5.61,11.5-9.95,15.98s-9.65,7.93-15.97,10.43c-6.32,2.49-13.48,3.72-21.51,3.72h-55.84v.02Z"/>
  <path class="cls-1" d="M399.04,333.79c-9.69,0-18.63-1.81-26.87-5.46-8.23-3.63-15.37-8.6-21.41-14.92-6.06-6.32-10.79-13.8-14.16-22.49-3.37-8.66-5.07-18.04-5.07-28.12s1.68-19.52,5.07-27.93c3.38-8.43,8.1-15.59,14.16-21.52,6.04-5.93,13.2-10.51,21.41-13.78,8.23-3.25,17.17-4.88,26.87-4.88h33.85c10.08,0,19.28,1.66,27.64,4.97,8.34,3.31,15.52,7.98,21.51,13.98,6,6,10.64,13.18,13.95,21.52,3.31,8.36,4.96,17.57,4.96,27.65s-1.7,19.46-5.07,28.12c-3.37,8.67-8.1,16.17-14.14,22.49-6.06,6.32-13.22,11.29-21.51,14.92-8.3,3.63-17.41,5.46-27.34,5.46h-33.85ZM432.89,309.49c6.36,0,12.23-1.14,17.6-3.44,5.35-2.3,9.97-5.46,13.86-9.48,3.89-4.02,6.92-8.84,9.09-14.45,2.17-5.61,3.24-11.67,3.24-18.17s-1.07-12.53-3.24-18.08c-2.17-5.55-5.2-10.3-9.09-14.26-3.89-3.96-8.51-7.05-13.86-9.29-5.35-2.24-11.22-3.35-17.6-3.35h-33.85c-6.26,0-12.02,1.12-17.3,3.35-5.29,2.24-9.84,5.33-13.67,9.29-3.83,3.96-6.81,8.66-8.98,14.15-2.17,5.48-3.25,11.55-3.25,18.17s1.07,12.56,3.25,18.17c2.17,5.61,5.16,10.43,8.98,14.45,3.83,4.02,8.38,7.18,13.67,9.48,5.29,2.3,11.07,3.44,17.3,3.44h33.85v.02Z"/>
  <path class="cls-1" d="M567.8,219.54c0,16.58-10.21,26.02-24.03,26.02-9.22,0-16.36-4.39-19.32-11.52v31.5h-6.26v-70.8h6.04v10.64c3.5-7.25,10.98-11.63,19.75-11.63,14.16,0,23.81,9.12,23.81,25.8ZM560.98,219.54c.22-12.84-7.46-19.76-18.33-19.76-9.54,0-18.1,5.7-18.1,18.66v1.1c0,13.07,7.46,20.08,18.1,20.08s18.23-7.25,18.33-20.08Z"/>
  <path class="cls-1" d="M625.5,194.72v49.84h-6.25v-9.76c-3.5,6.58-10.98,10.75-19.54,10.75-14.38,0-24.03-9.22-24.03-25.8s10.21-26.02,24.24-26.02c9.22,0,16.68,4.39,19.64,11.85v-10.86h5.93ZM618.82,219.75c0-13.29-7.57-19.97-18.1-19.97s-18.1,7.14-18.33,19.97c-.21,12.84,7.57,19.76,18.33,19.76,9.44,0,18.1-5.7,18.1-18.66v-1.1Z"/>
  <path class="cls-1" d="M681.79,194.62l-32.93,70.91h-6.92l11.2-23.61-19.64-47.19h7.67l15.58,39.73,17.56-39.84h7.48Z"/>
  <path class="cls-2" d="M748.63,193.58h-34.31l59.06,71-58.33,70.02h34.31l58.08-70.02-58.82-71Z"/>
  <rect class="cls-1" x="286.56" width="120.42" height="120.42"/>
  <rect class="cls-2" x="447.37" width="120.42" height="120.42"/>
</svg>