<svg viewBox="0 0 897 180" xmlns="http://www.w3.org/2000/svg" xmlns:xlink="http://www.w3.org/1999/xlink"><linearGradient id="a"><stop offset=".01295821" stop-color="#b42025"/><stop offset=".07013693" stop-color="#ae242a"/><stop offset=".1816" stop-color="#9d3554"/><stop offset=".335" stop-color="#824e96"/><stop offset=".3387" stop-color="#815098"/><stop offset=".6505" stop-color="#2b3277"/><stop offset=".7499" stop-color="#3a6297"/><stop offset=".8621" stop-color="#4994b7"/><stop offset=".9473" stop-color="#51b3cb"/><stop offset=".9947" stop-color="#54bfd2"/></linearGradient><linearGradient id="b" gradientTransform="matrix(1 0 0 -1 0 182)" gradientUnits="userSpaceOnUse" x1="132.0056" x2="574.6527" xlink:href="#a" y1="124.8945" y2="93.3637"/><linearGradient id="c" gradientTransform="matrix(1 0 0 -1 0 182)" gradientUnits="userSpaceOnUse" x1="132.6949" x2="575.3412" xlink:href="#a" y1="134.5669" y2="103.0352"/><linearGradient id="d" gradientTransform="matrix(1 0 0 -1 0 182)" gradientUnits="userSpaceOnUse" x1="133.2817" x2="575.9288" xlink:href="#a" y1="142.8074" y2="111.2766"/><linearGradient id="e"><stop offset=".007916755" stop-color="#1a74b7"/><stop offset="1" stop-color="#2b3377"/></linearGradient><linearGradient id="f" gradientTransform="matrix(1 0 0 -1 0 182)" gradientUnits="userSpaceOnUse" x1="920.0339" x2="544.0875" xlink:href="#e" y1="126.6976" y2="121.8466"/><linearGradient id="g" gradientTransform="matrix(1 0 0 -1 0 182)" gradientUnits="userSpaceOnUse" x1="920.043" x2="544.0957" xlink:href="#e" y1="126.0417" y2="121.1907"/><linearGradient id="h" gradientTransform="matrix(1 0 0 -1 0 182)" gradientUnits="userSpaceOnUse" x1="920.0604" x2="544.114" xlink:href="#e" y1="124.6772" y2="119.8262"/><linearGradient id="i" gradientTransform="matrix(1 0 0 -1 0 182)" gradientUnits="userSpaceOnUse" x1="920.0723" x2="544.1259" xlink:href="#e" y1="123.7119" y2="118.8608"/><linearGradient id="j" gradientTransform="matrix(1 0 0 -1 0 182)" gradientUnits="userSpaceOnUse" x1="920.0814" x2="544.1349" xlink:href="#e" y1="123.0179" y2="118.1678"/><path d="m103.9 57.5-16.4-10.9-18.2 7.3-8.2-32.8-23.7-19.1v23.7l-32.8-21.9 10 41.9 28.2 26.4-14.5 21.9-25.5 5.4 17.3 14.6 23.7-19.1 31-11.8 16.4-21.9zm-67.4-54.6 23.7 19.1 8.2 32.8-6.4 2.7-10-20-15.5-10.9zm38.2 79.2-6.4-14.6-5.5-10 27.3 4.6zm-30.9 11.9h-16.4l14.6-21.9 31 10.9zm18.2-36.5 5.5 10.9 6.3 14.6-32.7-10.9-27.4-25.5zm-10-20.9 10 20-48.3-10.9-10-41zm-31.9 76.5-18.2-12.8 24.6-5.5h16.4zm70.1-51.9-26.4-4.6 23.7-9.1 15.5 10.9z" fill="#010101"/><path d="m90.2 61.2-27.3-3.7-.9-.9 25.5-10 16.4 10.9v.9z" fill="#4077b4"/><path d="m74.7 83 15.5-21.8-28.2-3.7 11.8 24.6z" fill="#23345d"/><path d="m69.3 53.9-9.1-32.8-23.7-19.1h-.9v23.7l17.3 10 9.1 20.9z" fill="#23345d"/><path d="m62.9 57.5-10-21.8-51-31.9 10 41.9z" fill="#4077b4"/><path d="m73.8 82.1-11.8-24.6-49.2-10.9 28.3 25.5z" fill="#211f1f"/><path d="m27.4 94 13.7-21 31.8 10-29.1 11z" fill="#23345d"/><path d="m1 100.3 26.4-6.3h16.4l-23.7 20z" fill="#4077b4"/><path d="m136.7 103.1v-89.3h51.9c6.4 0 11.8.9 17.3 3.6 5.5 1.8 10 5.5 13.7 9.1s7.3 8.2 9.1 13.7 3.6 10.9 3.6 18.2c0 6.4-.9 12.7-3.6 18.2-1.8 5.5-5.5 10-9.1 14.6-3.6 3.6-8.2 7.3-13.7 10s-10.9 3.6-17.3 3.6h-51.9zm51.9-15.5c3.6 0 7.3-.9 10.9-1.8 3.6-1.8 6.4-3.6 9.1-6.4 2.7-2.7 4.6-5.5 5.5-9.1 1.8-3.6 1.8-7.3 1.8-11.8s-.9-8.2-1.8-11.8c-1.8-3.6-3.6-6.4-5.5-9.1-2.7-2.7-5.5-4.6-9.1-6.4s-7.3-1.8-10.9-1.8h-36.4v58.3c-.1-.1 36.4-.1 36.4-.1z" fill="url(#b)"/><path d="m269.6 78.5v-15.5h35.5c5.5 0 10-1.8 12.7-4.6 2.7-2.7 4.6-7.3 4.6-12.7s-1.8-9.1-4.6-12.7c-2.7-2.7-7.3-4.6-12.7-4.6h-47.3v73.7h-15.5v-89.2h62.8c5.5 0 10 .9 13.7 1.8 3.6 1.8 7.3 3.6 10 6.4 2.7 2.7 4.6 6.4 6.4 10s1.8 8.2 1.8 13.7c0 4.6-.9 9.1-1.8 13.7-1.8 3.6-3.6 7.3-6.4 10-2.7 2.7-6.4 5.5-10 6.4-3.6 1.8-9.1 2.7-13.7 2.7h-35.5z" fill="url(#c)"/><path d="m391.6 103.1c-6.4 0-11.8-.9-17.3-3.6s-10-5.5-13.7-10c-3.6-3.6-7.3-9.1-9.1-14.6s-3.6-11.8-3.6-18.2.9-12.7 3.6-18.2c1.8-5.5 5.5-10 9.1-13.7s8.2-6.4 13.7-9.1c5.5-1.8 10.9-2.7 17.3-2.7h21.9c6.4 0 12.7.9 18.2 3.6 5.5 1.8 10 5.5 13.7 9.1 3.6 3.6 7.3 8.2 9.1 13.7s3.6 10.9 3.6 18.2c0 6.4-.9 12.7-3.6 18.2-1.8 5.5-5.5 10-9.1 14.6-3.6 3.6-8.2 7.3-13.7 10s-10.9 3.6-17.3 3.6h-22.8zm21.8-15.5c4.6 0 8.2-.9 10.9-1.8 3.6-1.8 6.4-3.6 9.1-6.4 2.7-2.7 4.6-5.5 5.5-9.1 1.8-3.6 1.8-7.3 1.8-11.8s-.9-8.2-1.8-11.8c-1.8-3.6-3.6-6.4-5.5-9.1-2.7-2.7-5.5-4.6-9.1-6.4s-7.3-1.8-10.9-1.8h-21.9c-3.6 0-7.3.9-10.9 1.8-3.6 1.8-6.4 3.6-9.1 6.4-2.7 2.7-4.6 5.5-5.5 9.1-1.8 3.6-1.8 7.3-1.8 11.8s.9 8.2 1.8 11.8c1.8 3.6 3.6 6.4 5.5 9.1 2.7 2.7 5.5 4.6 9.1 6.4s7.3 1.8 10.9 1.8z" fill="url(#d)"/><path d="m561.9 99.4c-5.5 1.8-16.4 4.6-28.2 4.6-13.7 0-25.5-3.6-34.6-10.9-8.2-7.3-12.7-18.2-12.7-31.9 0-25.5 19.1-44.6 50.1-44.6 10.9 0 19.1 1.8 22.8 3.6l-2.7 9.1c-4.6-1.8-10.9-3.6-20-3.6-22.8 0-37.3 12.7-37.3 34.6s14.6 34.6 35.5 34.6c8.2 0 12.7-.9 16.4-2.7v-25.6h-19.1v-9.1h31v41.9z" fill="url(#f)"/><path d="m580.1 18.4c6.4-.9 14.6-1.8 22.8-1.8 12.7 0 20.9 1.8 26.4 7.3 4.6 3.6 7.3 10 7.3 16.4 0 10.9-7.3 19.1-17.3 21.9 7.3 2.7 11.8 8.2 13.7 17.3 2.7 11.8 5.5 20 7.3 23.7h-12.7c-1.8-2.7-3.6-10-6.4-20.9-2.7-11.8-7.3-16.4-18.2-16.4h-10.9v37.3h-11.8c-.2-.1-.2-84.8-.2-84.8zm12.7 39.1h11.8c12.7 0 20.9-6.4 20.9-16.4 0-10.9-9.1-16.4-20.9-16.4-5.5 0-10 .9-11.8.9z" fill="url(#g)"/><path d="m733.9 59.4c0 30-19.1 45.5-42.8 45.5-24.6 0-41.9-17.3-41.9-43.7 0-27.3 18.2-45.5 42.8-45.5 25.5 0 41.9 18.2 41.9 43.7zm-71.9.9c0 18.2 10.9 34.6 29.1 34.6 19.1 0 30-16.4 30-35.5 0-17.3-10-34.6-29.1-34.6-20 0-30 17.3-30 35.5z" fill="url(#h)"/><path d="m761.2 16.6v51c0 19.1 9.1 27.3 21.9 27.3 13.7 0 22.8-8.2 22.8-27.3v-51h11.8v50.1c0 26.4-14.6 37.3-34.6 37.3-19.1 0-33.7-10-33.7-36.4v-51z" fill="url(#i)"/><path d="m838.6 18.4c5.5-.9 13.7-1.8 22.8-1.8 11.8 0 20 2.7 26.4 7.3 5.5 3.6 8.2 10 8.2 18.2s-2.7 13.7-7.3 18.2c-6.4 6.4-16.4 9.1-28.2 9.1-3.6 0-7.3 0-10-.9v34.6h-11.8v-84.7zm11.9 41c2.7.9 5.5.9 10 .9 14.6 0 23.7-6.4 23.7-18.2 0-10.9-9.1-16.4-21.9-16.4-5.5 0-9.1 0-10.9.9v32.8z" fill="url(#j)"/><g fill="#23345d"><path d="m145.8 140.4h-9.1v-3.6h21.9v3.6h-9.1v30h-4.6v-30z"/><path d="m165.8 135.8h4.6v14.6l2.7-2.7c.9-.9 2.7-.9 3.6-.9 2.7 0 7.3 1.8 7.3 10v14.6h-4.6v-15.5c0-3.6-.9-6.4-4.6-6.4-2.7 0-4.6 1.8-5.5 4.6v1.8 14.6h-3.6v-34.7z"/><path d="m199.5 139.5c0 1.8-.9 2.7-2.7 2.7s-2.7-.9-2.7-2.7.9-2.7 2.7-2.7 2.7 1.8 2.7 2.7zm-4.6 30.9v-23.7h4.6v23.7z"/><path d="m209.5 153.1c0-2.7 0-4.6 0-6.4h3.6v3.6c.9-1.8 3.6-4.6 7.3-4.6s7.3 1.8 7.3 10v14.6h-4.6v-14.6c0-3.6-.9-6.4-4.6-6.4-2.7 0-4.6 1.8-5.5 4.6v1.8 14.6h-4.6v-17.3h1.1z"/><path d="m243.2 157.7c.9-.9.9-1.8 1.8-2.7l6.4-8.2h4.6l-8.2 9.1 9.1 13.7h-4.6l-7.3-11.8-1.8 2.7v9.1h-4.6v-34.6h4.6z"/><path d="m276.9 137.7c1.8 0 5.5-.9 9.1-.9 4.6 0 7.3.9 10 2.7 1.8 1.8 3.6 4.6 3.6 7.3 0 3.6-.9 6.4-2.7 8.2-2.7 2.7-6.4 3.6-10 3.6-.9 0-1.8 0-1.8 0v11.8h-7.3v-32.8h-.9zm7.3 14.5h1.8c3.6 0 6.4-1.8 6.4-5.5 0-2.7-1.8-4.6-5.5-4.6-.9 0-1.8 0-2.7 0z"/><path d="m319.7 170.4v-2.7c-1.8 1.8-3.6 2.7-6.4 2.7-4.6 0-7.3-3.6-7.3-7.3 0-6.4 5.5-9.1 13.7-9.1 0-1.8-.9-3.6-4.6-2.7-2.7 0-4.6.9-6.4 1.8l-.9-4.6c1.8-.9 4.6-1.8 9.1-1.8 8.2 0 10 4.6 10 10v8.2 5.5zm-.9-11.8c-3.6 0-6.4.9-6.4 3.6 0 1.8.9 2.7 2.7 2.7s2.7-.9 3.6-2.7v-.9-2.7z"/><path d="m339.7 145.9 3.6 11.8c0 1.8.9 2.7.9 4.6 0-.9.9-2.7.9-4.6l2.7-11.8h7.3l-5.5 16.4c-2.7 8.2-4.6 11.8-7.3 14.6s-5.5 3.6-6.4 3.6l-1.8-6.4c.9 0 1.8-.9 3.6-1.8.9-.9 1.8-1.8 2.7-2.7v-.9-.9l-8.2-21.9z"/><path d="m361.5 154c0-2.7 0-5.5 0-7.3h6.4v2.7c.9-1.8 3.6-3.6 7.3-3.6 2.7 0 5.5 1.8 6.4 3.6.9-.9 1.8-1.8 2.7-2.7s2.7-.9 4.6-.9c4.6 0 7.3 3.6 7.3 10v14.6h-7.3v-13.7c0-3.6-.9-5.5-2.7-5.5s-2.7.9-2.7 2.7v1.8 14.6h-8.2v-14.6c0-2.7-.9-4.6-2.7-4.6s-2.7.9-3.6 2.7v1.8 14.6h-7.3v-16.2z"/><path d="m411.6 160.4c0 3.6 2.7 4.6 6.4 4.6 2.7 0 4.6 0 6.4-.9l.9 4.6c-1.8.9-5.5 1.8-8.2 1.8-8.2 0-11.8-4.6-11.8-11.8 0-6.4 3.6-12.7 11.8-12.7 7.3 0 10 5.5 10 11.8v2.7s-15.5-.1-15.5-.1zm7.3-4.5c0-1.8-.9-5.5-3.6-5.5s-3.6 2.7-4.6 5.5z"/><path d="m434.4 154c0-2.7 0-5.5 0-7.3h6.4v3.6c.9-1.8 3.6-3.6 7.3-3.6 4.6 0 8.2 3.6 8.2 10v14.6h-8.3v-13.7c0-2.7-.9-4.6-3.6-4.6-1.8 0-2.7.9-3.6 2.7v1.8 14.6h-7.3v-18.1z"/><path d="m472.6 139.5v6.4h5.5v5.5h-5.5v9.1c0 2.7.9 3.6 2.7 3.6h1.8v5.5c-.9 0-2.7.9-4.6.9s-4.6-.9-5.5-1.8c-1.8-1.8-1.8-3.6-1.8-7.3v-10h-2.7v-5.5h2.7v-5.5z"/><path d="m485.4 164.1c.9.9 3.6 1.8 5.5 1.8 1.8 0 2.7-.9 2.7-1.8s-.9-1.8-3.6-2.7c-3.6-2.7-5.5-5.5-5.5-8.2 0-4.6 3.6-8.2 9.1-8.2 2.7 0 4.6.9 6.4.9l-.9 5.5c-.9-.9-2.7-.9-4.6-.9-1.8 0-2.7.9-2.7 1.8s.9 1.8 3.6 2.7c4.6 1.8 6.4 4.6 6.4 7.3 0 4.6-3.6 8.2-10 8.2-2.7 0-5.5-.9-7.3-1.8z"/></g></svg>